<svg width="18" height="18" viewBox="0 0 18 18" fill="none" xmlns="http://www.w3.org/2000/svg">
<path fill-rule="evenodd" clip-rule="evenodd" d="M10.7888 11.5843C8.8011 13.1763 5.89152 13.051 4.04893 11.2084C2.0719 9.23136 2.0719 6.02596 4.04893 4.04893C6.02596 2.0719 9.23136 2.07191 11.2084 4.04893C13.051 5.89152 13.1763 8.80109 11.5843 10.7888L15.451 14.6555C15.6707 14.8752 15.6707 15.2313 15.451 15.451C15.2313 15.6707 14.8752 15.6707 14.6555 15.451L10.7888 11.5843ZM4.84443 10.4129C3.30674 8.87521 3.30674 6.38212 4.84443 4.84443C6.38212 3.30674 8.87521 3.30674 10.4129 4.84443C11.9495 6.38099 11.9506 8.87155 10.4163 10.4095C10.4151 10.4106 10.414 10.4117 10.4129 10.4129C10.4118 10.414 10.4106 10.4151 10.4095 10.4163C8.87155 11.9506 6.38099 11.9495 4.84443 10.4129Z" fill="black"/>
</svg>
