<svg width="32" height="32" viewBox="0 0 32 32" fill="none" xmlns="http://www.w3.org/2000/svg">
<path d="M14.7072 11.3737C15.0977 10.9832 15.0977 10.35 14.7072 9.95952C14.3167 9.56899 13.6835 9.56899 13.293 9.95952L7.95964 15.2929C7.76438 15.4881 7.66675 15.744 7.66675 16C7.66675 16.1355 7.69373 16.2648 7.74263 16.3827C7.79143 16.5007 7.86376 16.6112 7.95964 16.7071L13.293 22.0404C13.6835 22.4309 14.3167 22.4309 14.7072 22.0404C15.0977 21.6499 15.0977 21.0167 14.7072 20.6262L11.081 17H24.0001C24.5524 17 25.0001 16.5522 25.0001 16C25.0001 15.4477 24.5524 15 24.0001 15H11.081L14.7072 11.3737Z" fill="black"/>
</svg>
