<svg width="24" height="24" viewBox="0 0 24 24" fill="none" xmlns="http://www.w3.org/2000/svg">
<path fill-rule="evenodd" clip-rule="evenodd" d="M11.1986 2.58716C11.6969 2.3103 12.3029 2.3103 12.8012 2.58716L20.0012 6.58716C20.525 6.87817 20.8499 7.43029 20.8499 8.02952V15.9704C20.8499 16.5696 20.525 17.1217 20.0012 17.4128L12.8012 21.4128C12.3029 21.6896 11.6969 21.6896 11.1986 21.4128L3.99859 17.4128C3.47477 17.1217 3.1499 16.5696 3.1499 15.9704V8.02952C3.1499 7.43029 3.47477 6.87817 3.99859 6.58716L11.1986 2.58716ZM12.0728 3.89839C12.0274 3.87322 11.9724 3.87322 11.9271 3.89839L4.72706 7.89839C4.67944 7.92485 4.6499 7.97504 4.6499 8.02952V15.9704C4.6499 16.0249 4.67944 16.0751 4.72705 16.1015L11.9271 20.1015C11.9724 20.1267 12.0274 20.1267 12.0728 20.1015L19.2728 16.1015C19.3204 16.0751 19.3499 16.0249 19.3499 15.9704V8.02952C19.3499 7.97504 19.3204 7.92485 19.2728 7.89839L12.0728 3.89839Z" fill="black"/>
<path fill-rule="evenodd" clip-rule="evenodd" d="M7.2499 12C7.2499 9.3766 9.37655 7.24995 11.9999 7.24995C14.6233 7.24995 16.7499 9.3766 16.7499 12C16.7499 14.6233 14.6233 16.75 11.9999 16.75C9.37655 16.75 7.2499 14.6233 7.2499 12ZM11.9999 8.74995C10.205 8.74995 8.7499 10.205 8.7499 12C8.7499 13.7949 10.205 15.25 11.9999 15.25C13.7948 15.25 15.2499 13.7949 15.2499 12C15.2499 10.205 13.7948 8.74995 11.9999 8.74995Z" fill="black"/>
</svg>
